
<svg width="952" height="155" viewBox="0 0 952 155" fill="none" xmlns="http://www.w3.org/2000/svg">
<path d="M200.364 124H170.227V30.9091H201.318C210.439 30.9091 218.273 32.7727 224.818 36.5C231.364 40.197 236.379 45.5151 239.864 52.4545C243.379 59.3636 245.136 67.6515 245.136 77.3182C245.136 87.0152 243.364 95.3485 239.818 102.318C236.303 109.288 231.212 114.652 224.545 118.409C217.879 122.136 209.818 124 200.364 124ZM184.273 111.727H199.591C206.682 111.727 212.576 110.394 217.273 107.727C221.97 105.03 225.485 101.136 227.818 96.0455C230.152 90.9242 231.318 84.6818 231.318 77.3182C231.318 70.0152 230.152 63.8182 227.818 58.7273C225.515 53.6364 222.076 49.7727 217.5 47.1364C212.924 44.5 207.242 43.1818 200.455 43.1818H184.273V111.727ZM281.83 125.545C277.405 125.545 273.405 124.727 269.83 123.091C266.254 121.424 263.42 119.015 261.33 115.864C259.269 112.712 258.239 108.848 258.239 104.273C258.239 100.333 258.996 97.0909 260.511 94.5455C262.027 92 264.072 89.9848 266.648 88.5C269.223 87.0152 272.102 85.8939 275.284 85.1364C278.466 84.3788 281.708 83.803 285.011 83.4091C289.193 82.9242 292.587 82.5303 295.193 82.2273C297.799 81.8939 299.693 81.3636 300.875 80.6364C302.057 79.9091 302.648 78.7273 302.648 77.0909V76.7727C302.648 72.803 301.527 69.7273 299.284 67.5455C297.072 65.3636 293.769 64.2727 289.375 64.2727C284.799 64.2727 281.193 65.2879 278.557 67.3182C275.951 69.3182 274.148 71.5455 273.148 74L260.375 71.0909C261.89 66.8485 264.102 63.4242 267.011 60.8182C269.951 58.1818 273.33 56.2727 277.148 55.0909C280.966 53.8788 284.981 53.2727 289.193 53.2727C291.981 53.2727 294.936 53.6061 298.057 54.2727C301.208 54.9091 304.148 56.0909 306.875 57.8182C309.633 59.5455 311.89 62.0151 313.648 65.2273C315.405 68.4091 316.284 72.5455 316.284 77.6364V124H303.011V114.455H302.466C301.587 116.212 300.269 117.939 298.511 119.636C296.754 121.333 294.496 122.742 291.739 123.864C288.981 124.985 285.678 125.545 281.83 125.545ZM284.784 114.636C288.542 114.636 291.754 113.894 294.42 112.409C297.117 110.924 299.163 108.985 300.557 106.591C301.981 104.167 302.693 101.576 302.693 98.8182V89.8182C302.208 90.303 301.269 90.7576 299.875 91.1818C298.511 91.5758 296.951 91.9242 295.193 92.2273C293.436 92.5 291.723 92.7576 290.057 93C288.39 93.2121 286.996 93.3939 285.875 93.5455C283.239 93.8788 280.83 94.4394 278.648 95.2273C276.496 96.0152 274.769 97.1515 273.466 98.6364C272.193 100.091 271.557 102.03 271.557 104.455C271.557 107.818 272.799 110.364 275.284 112.091C277.769 113.788 280.936 114.636 284.784 114.636ZM386.705 71.2273L374.386 73.4091C373.871 71.8333 373.053 70.3333 371.932 68.9091C370.841 67.4848 369.356 66.3182 367.477 65.4091C365.598 64.5 363.25 64.0455 360.432 64.0455C356.583 64.0455 353.371 64.9091 350.795 66.6364C348.22 68.3333 346.932 70.5303 346.932 73.2273C346.932 75.5606 347.795 77.4394 349.523 78.8636C351.25 80.2879 354.038 81.4545 357.886 82.3636L368.977 84.9091C375.402 86.3939 380.189 88.6818 383.341 91.7727C386.492 94.8636 388.068 98.8788 388.068 103.818C388.068 108 386.856 111.727 384.432 115C382.038 118.242 378.689 120.788 374.386 122.636C370.114 124.485 365.159 125.409 359.523 125.409C351.705 125.409 345.326 123.742 340.386 120.409C335.447 117.045 332.417 112.273 331.295 106.091L344.432 104.091C345.25 107.515 346.932 110.106 349.477 111.864C352.023 113.591 355.341 114.455 359.432 114.455C363.886 114.455 367.447 113.53 370.114 111.682C372.78 109.803 374.114 107.515 374.114 104.818C374.114 102.636 373.295 100.803 371.659 99.3182C370.053 97.8333 367.583 96.7121 364.25 95.9545L352.432 93.3636C345.917 91.8788 341.098 89.5152 337.977 86.2727C334.886 83.0303 333.341 78.9242 333.341 73.9545C333.341 69.8333 334.492 66.2273 336.795 63.1364C339.098 60.0455 342.28 57.6364 346.341 55.9091C350.402 54.1515 355.053 53.2727 360.295 53.2727C367.841 53.2727 373.78 54.9091 378.114 58.1818C382.447 61.4242 385.311 65.7727 386.705 71.2273ZM416.602 82.5455V124H403.011V30.9091H416.42V65.5455H417.284C418.92 61.7879 421.42 58.803 424.784 56.5909C428.148 54.3788 432.542 53.2727 437.966 53.2727C442.754 53.2727 446.936 54.2576 450.511 56.2273C454.117 58.197 456.905 61.1364 458.875 65.0455C460.875 68.9242 461.875 73.7727 461.875 79.5909V124H448.284V81.2273C448.284 76.1061 446.966 72.1364 444.33 69.3182C441.693 66.4697 438.027 65.0455 433.33 65.0455C430.117 65.0455 427.239 65.7273 424.693 67.0909C422.178 68.4545 420.193 70.4545 418.739 73.0909C417.314 75.697 416.602 78.8485 416.602 82.5455ZM481.102 124V30.9091H538.83V43H495.148V71.3636H534.693V83.4091H495.148V124H481.102ZM555.011 124V54.1818H568.602V124H555.011ZM561.875 43.4091C559.511 43.4091 557.481 42.6212 555.784 41.0454C554.117 39.4394 553.284 37.5303 553.284 35.3182C553.284 33.0758 554.117 31.1667 555.784 29.5909C557.481 27.9848 559.511 27.1818 561.875 27.1818C564.239 27.1818 566.254 27.9848 567.92 29.5909C569.617 31.1667 570.466 33.0758 570.466 35.3182C570.466 37.5303 569.617 39.4394 567.92 41.0454C566.254 42.6212 564.239 43.4091 561.875 43.4091ZM600.477 82.5455V124H586.886V54.1818H599.932V65.5455H600.795C602.402 61.8485 604.917 58.8788 608.341 56.6364C611.795 54.3939 616.144 53.2727 621.386 53.2727C626.144 53.2727 630.311 54.2727 633.886 56.2727C637.462 58.2424 640.235 61.1818 642.205 65.0909C644.174 69 645.159 73.8333 645.159 79.5909V124H631.568V81.2273C631.568 76.1667 630.25 72.2121 627.614 69.3636C624.977 66.4848 621.356 65.0455 616.75 65.0455C613.598 65.0455 610.795 65.7273 608.341 67.0909C605.917 68.4545 603.992 70.4545 602.568 73.0909C601.174 75.697 600.477 78.8485 600.477 82.5455ZM683.705 125.545C679.28 125.545 675.28 124.727 671.705 123.091C668.129 121.424 665.295 119.015 663.205 115.864C661.144 112.712 660.114 108.848 660.114 104.273C660.114 100.333 660.871 97.0909 662.386 94.5455C663.902 92 665.947 89.9848 668.523 88.5C671.098 87.0152 673.977 85.8939 677.159 85.1364C680.341 84.3788 683.583 83.803 686.886 83.4091C691.068 82.9242 694.462 82.5303 697.068 82.2273C699.674 81.8939 701.568 81.3636 702.75 80.6364C703.932 79.9091 704.523 78.7273 704.523 77.0909V76.7727C704.523 72.803 703.402 69.7273 701.159 67.5455C698.947 65.3636 695.644 64.2727 691.25 64.2727C686.674 64.2727 683.068 65.2879 680.432 67.3182C677.826 69.3182 676.023 71.5455 675.023 74L662.25 71.0909C663.765 66.8485 665.977 63.4242 668.886 60.8182C671.826 58.1818 675.205 56.2727 679.023 55.0909C682.841 53.8788 686.856 53.2727 691.068 53.2727C693.856 53.2727 696.811 53.6061 699.932 54.2727C703.083 54.9091 706.023 56.0909 708.75 57.8182C711.508 59.5455 713.765 62.0151 715.523 65.2273C717.28 68.4091 718.159 72.5455 718.159 77.6364V124H704.886V114.455H704.341C703.462 116.212 702.144 117.939 700.386 119.636C698.629 121.333 696.371 122.742 693.614 123.864C690.856 124.985 687.553 125.545 683.705 125.545ZM686.659 114.636C690.417 114.636 693.629 113.894 696.295 112.409C698.992 110.924 701.038 108.985 702.432 106.591C703.856 104.167 704.568 101.576 704.568 98.8182V89.8182C704.083 90.303 703.144 90.7576 701.75 91.1818C700.386 91.5758 698.826 91.9242 697.068 92.2273C695.311 92.5 693.598 92.7576 691.932 93C690.265 93.2121 688.871 93.3939 687.75 93.5455C685.114 93.8788 682.705 94.4394 680.523 95.2273C678.371 96.0152 676.644 97.1515 675.341 98.6364C674.068 100.091 673.432 102.03 673.432 104.455C673.432 107.818 674.674 110.364 677.159 112.091C679.644 113.788 682.811 114.636 686.659 114.636ZM749.852 82.5455V124H736.261V54.1818H749.307V65.5455H750.17C751.777 61.8485 754.292 58.8788 757.716 56.6364C761.17 54.3939 765.519 53.2727 770.761 53.2727C775.519 53.2727 779.686 54.2727 783.261 56.2727C786.837 58.2424 789.61 61.1818 791.58 65.0909C793.549 69 794.534 73.8333 794.534 79.5909V124H780.943V81.2273C780.943 76.1667 779.625 72.2121 776.989 69.3636C774.352 66.4848 770.731 65.0455 766.125 65.0455C762.973 65.0455 760.17 65.7273 757.716 67.0909C755.292 68.4545 753.367 70.4545 751.943 73.0909C750.549 75.697 749.852 78.8485 749.852 82.5455ZM842.17 125.409C835.413 125.409 829.595 123.879 824.716 120.818C819.867 117.727 816.14 113.47 813.534 108.045C810.928 102.621 809.625 96.4091 809.625 89.4091C809.625 82.3182 810.958 76.0606 813.625 70.6364C816.292 65.1818 820.049 60.9242 824.898 57.8636C829.746 54.803 835.458 53.2727 842.034 53.2727C847.337 53.2727 852.064 54.2576 856.216 56.2273C860.367 58.1667 863.716 60.8939 866.261 64.4091C868.837 67.9242 870.367 72.0303 870.852 76.7273H857.625C856.898 73.4545 855.231 70.6364 852.625 68.2727C850.049 65.9091 846.595 64.7273 842.261 64.7273C838.473 64.7273 835.155 65.7273 832.307 67.7273C829.489 69.697 827.292 72.5151 825.716 76.1818C824.14 79.8182 823.352 84.1212 823.352 89.0909C823.352 94.1818 824.125 98.5758 825.67 102.273C827.216 105.97 829.398 108.833 832.216 110.864C835.064 112.894 838.413 113.909 842.261 113.909C844.837 113.909 847.17 113.439 849.261 112.5C851.383 111.53 853.155 110.152 854.58 108.364C856.034 106.576 857.049 104.424 857.625 101.909H870.852C870.367 106.424 868.898 110.455 866.443 114C863.989 117.545 860.701 120.333 856.58 122.364C852.489 124.394 847.686 125.409 842.17 125.409ZM915.477 125.409C908.598 125.409 902.674 123.939 897.705 121C892.765 118.03 888.947 113.864 886.25 108.5C883.583 103.106 882.25 96.7879 882.25 89.5455C882.25 82.3939 883.583 76.0909 886.25 70.6364C888.947 65.1818 892.705 60.9242 897.523 57.8636C902.371 54.803 908.038 53.2727 914.523 53.2727C918.462 53.2727 922.28 53.9242 925.977 55.2273C929.674 56.5303 932.992 58.5758 935.932 61.3636C938.871 64.1515 941.189 67.7727 942.886 72.2273C944.583 76.6515 945.432 82.0303 945.432 88.3636V93.1818H889.932V83H932.114C932.114 79.4242 931.386 76.2576 929.932 73.5C928.477 70.7121 926.432 68.5151 923.795 66.9091C921.189 65.303 918.129 64.5 914.614 64.5C910.795 64.5 907.462 65.4394 904.614 67.3182C901.795 69.1667 899.614 71.5909 898.068 74.5909C896.553 77.5606 895.795 80.7879 895.795 84.2727V92.2273C895.795 96.8939 896.614 100.864 898.25 104.136C899.917 107.409 902.235 109.909 905.205 111.636C908.174 113.333 911.644 114.182 915.614 114.182C918.189 114.182 920.538 113.818 922.659 113.091C924.78 112.333 926.614 111.212 928.159 109.727C929.705 108.242 930.886 106.409 931.705 104.227L944.568 106.545C943.538 110.333 941.689 113.652 939.023 116.5C936.386 119.318 933.068 121.515 929.068 123.091C925.098 124.636 920.568 125.409 915.477 125.409Z" fill="#EEEEEE"/>
<path fill-rule="evenodd" clip-rule="evenodd" d="M0 81.9553C1.03823 95.0151 6.12009 106.936 13.9934 116.466L48.5036 81.9553H0ZM20.9606 123.641C30.2711 131.805 42.0456 137.228 55.0236 138.648V89.5775L20.9606 123.641ZM100.987 125.125C91.0755 133.19 78.627 138.255 65.0236 138.94V89.1621L100.987 125.125ZM123.705 81.9553C122.602 95.8251 116.939 108.41 108.214 118.211L71.9589 81.9553H123.705ZM108.523 36.0783C117.066 45.8208 122.607 58.2612 123.702 71.9553H72.6458L108.523 36.0783ZM65.0236 15C78.7928 15.6932 91.3787 20.8747 101.348 29.1111L65.0236 65.4354V15ZM0.00235306 71.9553H47.8168L13.6972 37.8358C5.9986 47.2974 1.03273 59.0715 0.00235306 71.9553ZM20.6116 30.608C29.9761 22.2719 41.8829 16.7304 55.0236 15.2918V65.02L20.6116 30.608Z" fill="#EEEEEE"/>
</svg>
